<?xml version="1.0" encoding="utf-8"?>
<!-- Generator: Adobe Illustrator 19.0.0, SVG Export Plug-In . SVG Version: 6.00 Build 0)  -->
<svg version="1.1" id="Layer_1" xmlns="http://www.w3.org/2000/svg" xmlns:xlink="http://www.w3.org/1999/xlink" x="0px" y="0px"
	 viewBox="0 0 1 1" style="enable-background:new 0 0 1 1;" xml:space="preserve">
<g id="XMLID_3_">
	<path id="XMLID_4_" d="M0.077354,0.2133576h0.181865c0.0354399,0,0.0634308,0.0096312,0.0839724,0.0288937
		s0.0308501,0.0517679,0.0308501,0.0975163v0.3151222c0,0.0452217-0.0096312,0.0784796-0.0288937,0.0997737
		C0.3258852,0.7759577,0.2974429,0.7866424,0.2599714,0.7866424H0.077354V0.2133576z M0.2029363,0.676485h0.0177576
		c0.009255,0,0.0155003-0.0028593,0.0188863-0.0085026C0.242891,0.6623391,0.2445463,0.6536108,0.2445463,0.6417975V0.3528602
		c0-0.0118133-0.0015049-0.0203159-0.0045899-0.0254325c-0.003085-0.0051166-0.0090293-0.0076749-0.0177576-0.0076749H0.2029363
		V0.676485z"/>
	<path id="XMLID_7_" d="M0.4009788,0.2133576h0.2396524v0.1179075H0.5265611v0.098645h0.0878851v0.1209925H0.5265611v0.2357398
		H0.4009788V0.2133576z"/>
	<path id="XMLID_9_" d="M0.7901412,0.70267H0.7315261L0.7230987,0.7866424H0.6129414l0.0731372-0.5732847h0.1564325
		L0.922646,0.7866424H0.7993962L0.7901412,0.70267z M0.7431136,0.5894276h0.03544l-0.0176824-0.17419L0.7431136,0.5894276z"/>
</g>
</svg>
