<?xml version="1.0" encoding="utf-8"?>
<!-- Generator: Adobe Illustrator 19.0.0, SVG Export Plug-In . SVG Version: 6.00 Build 0)  -->
<svg version="1.1" id="Layer_1" xmlns="http://www.w3.org/2000/svg" xmlns:xlink="http://www.w3.org/1999/xlink" x="0px" y="0px"
	 viewBox="0 0 1 1" style="enable-background:new 0 0 1 1;" xml:space="preserve">
<g id="XMLID_3_">
	<path id="XMLID_4_" d="M0.3466902,0.5v0.0292839c0,0.0174719-0.0004922,0.0322369-0.0019687,0.044295
		C0.3427529,0.585883,0.3393077,0.597941,0.3338939,0.6099991c-0.0054138,0.011812-0.0132885,0.0231318-0.0246083,0.0342056
		C0.2861538,0.6675826,0.2536708,0.6793945,0.2128211,0.6793945H0.0799362V0.3206055h0.1328848
		c0.0408498,0,0.0733327,0.011812,0.0964646,0.0351899c0.0113198,0.0110737,0.0191945,0.0223936,0.0246083,0.0342055
		C0.3393077,0.402059,0.3427529,0.414117,0.3447216,0.4264212c0.0014765,0.0120581,0.0019687,0.0268231,0.0019687,0.044295V0.5z
		 M0.2585925,0.5c0-0.02953-0.0004922-0.0489705-0.0019687-0.0583217C0.2556395,0.4320811,0.2531787,0.4246986,0.2492413,0.4192848
		C0.2403824,0.4057502,0.2261095,0.399106,0.2069151,0.399106H0.1680339V0.600894h0.0388811
		c0.0191945,0,0.0334673-0.0066442,0.0423263-0.0201788c0.002953-0.0041834,0.0049217-0.0086129,0.005906-0.0125502
		C0.2561317,0.5637355,0.257116,0.5565991,0.2576082,0.5465097C0.2585925,0.5364203,0.2585925,0.5209171,0.2585925,0.5z"/>
	<path id="XMLID_7_" d="M0.6213189,0.399106H0.4657944v0.0629973h0.1328848v0.0785005H0.4657944v0.1387908H0.3776967V0.3206055
		h0.2436222V0.399106z"/>
	<path id="XMLID_9_" d="M0.9200637,0.6793945H0.8280286l-0.0167336-0.0534H0.7010498l-0.017718,0.0534H0.5912967l0.130424-0.3587891
		h0.0679189L0.9200637,0.6793945z M0.7881632,0.5524157L0.758141,0.4566894l-0.032483,0.0957263H0.7881632z"/>
</g>
</svg>
