<?xml version="1.0" encoding="utf-8"?>
<!-- Generator: Adobe Illustrator 19.0.0, SVG Export Plug-In . SVG Version: 6.00 Build 0)  -->
<svg version="1.1" id="Layer_2" xmlns="http://www.w3.org/2000/svg" xmlns:xlink="http://www.w3.org/1999/xlink" x="0px" y="0px"
	 viewBox="0 0 1 1" style="enable-background:new 0 0 1 1;" xml:space="preserve">
<style type="text/css">
	.st0{fill:#EC2527;}
</style>
<g id="XMLID_68_">
	<path id="XMLID_69_" class="st0" d="M0.2780362,0.6626123h0.0006852l0.0013704-0.0020557H0.280777l0.0044539-0.0034261
		L0.2845457,0.6605566L0.2818048,0.661927L0.2804344,0.6663808L0.2776936,0.6670661H0.2770084L0.2749527,0.6684365
		L0.2742675,0.6677513l0.0006852-0.0013704l0.0020556-0.0020556V0.6629547H0.2746101L0.2732397,0.6667234L0.2711841,0.6687791
		l0.0013704,0.0051391h0.0006852l0.0037687-0.0013704h0.0013704v0.0020556L0.2763231,0.6759739L0.2735822,0.6766591
		L0.2708414,0.6793999L0.2670727,0.6852243l-0.003426,0.0013704L0.2622762,0.6886504H0.2602206L0.2595353,0.6879651
		l0.0099356-0.0078799L0.2674153,0.6780295h0.0013704l0.0027409-0.0044538H0.2701561L0.2609057,0.6787148L0.2557667,0.6845391
		L0.2543963,0.6852244v0.0006852L0.2523406,0.6845393V0.6807706h0.0020557l0.0020556-0.0051391L0.2557667,0.674261H0.2530259
		L0.2509702,0.6787149L0.2458311,0.6831687L0.2430902,0.683854L0.2410346,0.6865948L0.2396642,0.6831687H0.2369234
		L0.235553,0.6852244L0.2328121,0.6859096L0.2300713,0.6886504L0.2287009,0.6907061L0.2280157,0.6913913l0.0020557,0.0020557
		l0.0058243-0.0051391v0.0027408L0.2293861,0.6955026v0.0027408H0.2280157L0.2266453,0.6996138L0.2201358,0.7023546
		L0.2194506,0.6996138L0.2180802,0.7002991L0.217395,0.7023547L0.2160246,0.7037251V0.706466L0.2102003,0.709892
		L0.2081446,0.7105772L0.2009499,0.7191424l0.0006852-0.0020557H0.1995794L0.1958107,0.7215406l-0.0044539,0.003426H0.192042
		l0.0020557-0.0013704h0.0020557L0.1947829,0.7263371H0.1934125L0.1920421,0.7290779L0.1875882,0.7297632L0.1848474,0.7283927
		L0.1841622,0.7318188L0.1821065,0.7325041L0.1807361,0.7331893L0.17731,0.7338746L0.1745692,0.7359302L0.1725135,0.7366155
		L0.1718283,0.7379859L0.1666892,0.7393563H0.1632631L0.1588092,0.7420971L0.1560684,0.7414119L0.1553832,0.7434675H0.1533275
		L0.1519571,0.7396988H0.1505867L0.148531,0.7434675L0.1471606,0.7455232H0.1457902L0.1413364,0.748264L0.1385955,0.7489492
		l0.0006852,0.0020556L0.137225,0.7489492H0.1341414L0.1334562,0.7510049L0.1307154,0.756144L0.1269467,0.7568293
		L0.1255763,0.7575145H0.1235206L0.1228354,0.7595702H0.1204372L0.1170111,0.762311H0.1111868L0.111872,0.7643666H0.1091311
		L0.1077607,0.762311L0.1026216,0.7667648L0.1019364,0.7660795H0.0974825L0.0947417,0.76745L0.0875469,0.7688203H0.083093
		l0.0013704-0.0006852L0.0837782,0.7660795L0.083093,0.7575143l0.0130191-0.033918L0.100566,0.7078363L0.0998808,0.706466
		l0.0106208-0.0380294L0.1139277,0.656788l0.0006852-0.0058244l0.0006852-0.0013704l0.0020557-0.0065095V0.641028
		l0.0020557-0.0123339l0.0013704-0.0027408l0.0020557-0.0109634l0.0006852-0.0020556l0.0006852-0.0044538l0.0006852-0.0020557
		l0.0065095-0.0253528l0.0006852-0.0006853l0.0044539-0.020899l0.0037687-0.0099356l0.0006852-0.0092505l0.0006852-0.0013704
		l0.0085652-0.0380294l0.0027409-0.0085652V0.4895959l0.0027409-0.0092504L0.174569,0.3991477L0.1752542,0.397092
		l0.0020557-0.0116486l0.0006852-0.0099356l0.0034261-0.0051391L0.184162,0.3487846l0.0027409-0.0071948V0.3350803
		l0.0027409-0.0116486l0.0085652-0.0229547V0.2963658L0.2009498,0.293625l0.0020557-0.0058244l0.0044539-0.0065095
		l0.0044539-0.0116486l0.0037687-0.0034261l0.0044539-0.0027408L0.2215062,0.26142l0.0013704-0.0013704V0.257994
		l0.0044539-0.0020557l0.00788-0.0013704l0.0051391,0.0020557l0.0051391-0.0013704l0.0020557,0.0006853l0.0013704,0.0027408
		L0.254739,0.2607349l0.0058243,0.0013704h0.0027409L0.2985927,0.2693l0.00788,0.0037687L0.3109266,0.273754l0.0123338,0.0051391
		l0.0188434,0.0092504l0.0181581,0.0116486l0.0099356,0.0071948l0.0013704,0.0013704l0.0188434,0.0164451l0.0150747,0.0171303
		v0.0013704l0.0034261,0.0044538L0.4082267,0.3498126l0.0065095,0.0078799l0.0065095,0.0137043h0.0013704L0.4212457,0.3758506
		h0.0020556l0.0006853,0.0027408l0.0020556,0.0027408l0.0006853,0.0020557l0.0020556,0.0020556l0.0078799,0.0181581
		l0.0020557,0.0020557l0.0051391,0.0164451v0.0013704l0.0020557,0.0013704l0.0006852,0.0058244v0.0071948H0.4445431
		L0.4424874,0.4364919H0.441117v0.013019h0.0006852L0.443858,0.4436865L0.4431727,0.4495109h0.0013704L0.4438578,0.4522517
		L0.4400892,0.4615021L0.4394039,0.4628725L0.4387186,0.4635578L0.440089,0.4642431l0.0006853,0.0013704L0.4387186,0.4662987
		L0.4373482,0.4683544L0.436663,0.4710952L0.4352926,0.4745212h0.0003426V0.4717804l0.0020557-0.0027408L0.4356352,0.4632153
		L0.43495,0.4639005L0.4335796,0.4731509L0.4301535,0.4745213l0.0013704,0.0027408H0.4301535l0.0006852,0.0037687
		L0.431524,0.4817161v0.0020556L0.4294683,0.484457l0.0006852,0.0013704H0.4294683L0.4287831,0.4878831L0.4267274,0.4899388
		l0.0013704,0.0013704L0.425357,0.4933648v0.0051391L0.4233013,0.5022726L0.4226161,0.5029579L0.4205604,0.506384v0.0037687
		h0.0013704l0.0006852-0.0027408v0.0037687h0.0006852l0.0034261-0.0058244H0.4260422L0.4246718,0.5067266V0.5060413
		L0.425357,0.5053561L0.4246718,0.5033004l0.0044538,0.0020557L0.4270699,0.5139212H0.4263847v0.0051391H0.4256994
		L0.424329,0.5176899H0.4236438L0.4229585,0.5221437L0.4209028,0.5241994l0.0013704,0.0006852L0.4202176,0.5269403V0.5262551
		H0.4185049L0.4171345,0.5307089L0.4126806,0.5365333L0.4113102,0.5430428L0.4099398,0.5450984L0.4092546,0.5457837h0.0027408
		L0.410625,0.5478393L0.4092546,0.5505801L0.4041155,0.5557193L0.3996616,0.5622287v0.0044538L0.397606,0.5687383v0.0013704
		l0.0013704,0.0006853L0.397606,0.5721644L0.3955503,0.5707939L0.3934946,0.5752478L0.3928094,0.5790164L0.3907537,0.5817572
		L0.3893833,0.583813L0.3880129,0.5851833V0.587239L0.3866425,0.5937485L0.3839017,0.5923781L0.3808182,0.5978596
		L0.3794478,0.5985449L0.3743086,0.6036839H0.3729382l0.0006853,0.0044538L0.3722531,0.6088231V0.6074526L0.3657436,0.6139622
		L0.367114,0.6153325L0.3585488,0.6232125L0.3578636,0.6259533L0.3513541,0.6310924L0.3506688,0.6331481L0.347928,0.6376019
		L0.3441593,0.6403427L0.3427889,0.6430835h-0.003426L0.3379924,0.6458243H0.3359368L0.3325107,0.6502782v0.0020557
		L0.3304551,0.6550747L0.3290847,0.6571303L0.3246308,0.6615841L0.32189,0.6629546L0.3198344,0.6656954L0.3184639,0.6691214
		L0.3126396,0.6742605L0.3119544,0.6749458H0.310584L0.3085284,0.6770014L0.3047597,0.6797423V0.6770014H0.3040745
		L0.3020188,0.6776867L0.302704,0.6763163l0.0065095-0.0058243l0.0051391-0.0065095H0.312297L0.3109266,0.6646677
		L0.3102413,0.6639825H0.3088709L0.3081857,0.6667233L0.3068153,0.6694641L0.3054449,0.6708345L0.3020189,0.6752883
		L0.2961946,0.6797422H0.2941389L0.2883146,0.684196L0.2862589,0.6876221L0.2855737,0.6883073H0.2842033L0.2742678,0.6975577
		V0.698243L0.2722121,0.6989282L0.2643321,0.7047526L0.2622765,0.7074934H0.2602208V0.7068081l0.0037687-0.0013704
		l0.0027409-0.0044538V0.7006416H0.26536L0.2615913,0.7040676L0.2609061,0.7054381L0.2564522,0.7081789L0.255767,0.7095492
		H0.2519983L0.2513131,0.7081789l0.0037687-0.0027408h0.0020556l0.0020557-0.0020557L0.261934,0.7026972l0.0020557-0.0044538
		l0.0020556-0.0037687h0.0006852l0.0013704,0.0044539l0.0058243-0.0051391l0.0020556-0.0013704l0.0013704-0.0013704
		l0.0027409-0.0006853L0.2794069,0.6869372L0.2773513,0.6883076V0.6869373l0.0027409-0.0020556L0.2807773,0.682826
		l0.0013704-0.0013704l0.0013704,0.0020556L0.286259,0.682826l0.0078799-0.0078799L0.2968798,0.669807l0.0027409-0.0013704
		l0.0065095-0.0071948l0.0020557-0.0020556l0.003426-0.0027408L0.3109267,0.655075H0.3081858L0.3037319,0.6608993
		L0.3023615,0.6622697L0.2965373,0.6674088L0.2944816,0.6718627L0.2924259,0.669807L0.2910555,0.6711774L0.2759808,0.6835113
		H0.27324l0.0065095-0.0065095l0.0027409-0.0034261V0.6722053H0.284546l0.003426-0.0051391l0.0006852-0.0027408h0.0006852v0.0013704
		h0.0013704L0.2913981,0.658501l0.0027409-0.0027408l0.0044539-0.0051391H0.2951665L0.2900274,0.655075L0.288657,0.6588436
		V0.6543898L0.2913979,0.649936V0.6485655L0.2876292,0.6492508L0.2862588,0.6543899L0.2797493,0.6588438L0.2790641,0.6615846
		H0.2780362V0.6626123z M0.1831342,0.6804278L0.1882733,0.675974l0.0013704-0.0027408h0.0006852l0.0013704-0.0013704
		l0.0013704-0.0116487L0.1937549,0.662955L0.1923845,0.6708349l0.0020557,0.0006852L0.197181,0.6677514h0.0037687
		l0.0164451-0.016445l0.0044539-0.0020557L0.2245896,0.647195l0.0164451-0.0123339L0.2417199,0.634176l0.0332328-0.028779
		l0.0013704-0.0006852l0.0020556-0.0044539h0.0013704l0.0116486-0.0106208l0.003426-0.0006853L0.2941387,0.586211
		l0.0106208-0.0106208l0.0020557-0.0013704l0.0058243-0.0065095V0.5663399l0.0044538-0.0037687h0.0013704L0.3177785,0.5591451
		l0.0051391-0.0037687H0.324288l0.0078799-0.0099356l0.0027408-0.0058243l0.0020556-0.0013704l0.0123339-0.0143895
		l0.0020557-0.0058244l0.0020556-0.0013704l0.0123339-0.0195286l0.0085652-0.0157599V0.4786325L0.3780772,0.472123
		l0.0058244-0.0181581V0.4467701l0.0020557-0.0020557l0.0006852-0.0058244L0.3845868,0.4368344l0.0027408-0.0085652
		L0.385272,0.4238154l0.0006853-0.0034261L0.3845868,0.4059998L0.380133,0.3916103L0.3773922,0.3881842L0.3753365,0.387499
		L0.3746513,0.3854433H0.3725956l-0.013019-0.020899L0.3393629,0.3429601L0.3379924,0.3422749L0.3164083,0.3278854
		L0.2975649,0.3200054L0.2732398,0.3141811L0.273925,0.3155515l0.0013704,0.0137042L0.2732398,0.3480991L0.2681007,0.3652295
		v0.0071948L0.2629616,0.392638L0.2622764,0.3940084L0.2615912,0.4012032L0.2499426,0.4471124L0.2492574,0.4556776
		L0.247887,0.4577332l-0.0006852,0.003426L0.2465166,0.463215L0.2458314,0.4645854l0.0006852,0.0013704l-0.0027409,0.013019
		L0.24172,0.4841139L0.2396644,0.4861695L0.2376087,0.4919939L0.2362383,0.4940495L0.2355531,0.500559L0.2334974,0.5032999
		v0.0027408L0.2307566,0.5087815L0.2300714,0.5146058L0.228701,0.5166615L0.2280158,0.5204302H0.228701l0.0006852-0.0013704
		l0.0013704-0.0037687h0.0006852L0.2307566,0.5173467L0.2300714,0.5224859L0.2273305,0.5252267l0.0006852,0.0013704
		L0.2266453,0.5286527v0.0051391L0.2252749,0.5365326l0.0006852,0.0006853h0.0013704L0.2266453,0.5379031L0.2252749,0.5385884
		L0.2245897,0.5399588L0.222534,0.5450979l0.0013704,0.0013704v0.0027408L0.2194505,0.5564039L0.2180801,0.5570891
		l0.0006852,0.0034261L0.2160245,0.5618856L0.2146541,0.5683951l0.0006852,0.0020556L0.2139689,0.5731916v0.0027408h0.0006852
		L0.2153393,0.574562l0.0027409-0.0034261l0.0013704,0.0020556L0.2136263,0.5803863L0.2129411,0.5831271L0.209515,0.5838124
		l0.0013704,0.0013704l0.0013704-0.0006852H0.212941l0.0013704,0.0020556L0.2122557,0.589294l0.0006852,0.0013704
		L0.2115705,0.5992296L0.2095149,0.6012853L0.206774,0.6077948L0.2060888,0.6136191h0.0020557v0.0013704L0.2060888,0.618416
		L0.2047184,0.6211568L0.2026628,0.6225272L0.2012923,0.6262959V0.631435l0.0027409-0.0058244v0.0027408L0.2026628,0.6304072
		v0.0051391L0.2006071,0.6362315L0.1999219,0.6400002L0.1978663,0.642741l0.0006852,0.0006853l0.0020557-0.0013704h0.0006852
		l0.0006852,0.0027408L0.1982089,0.6513062L0.1947828,0.6533618L0.1934124,0.6578156l0.0006852-0.0071948L0.1927272,0.6478801
		l0.0044539-0.0027408L0.1964959,0.6423985l0.0027409-0.0078799V0.6286942H0.1985515L0.1958107,0.631435L0.1923846,0.6413706
		l0.0006852,0.0027408H0.193755l0.0006852,0.0006853L0.193755,0.6454819L0.1899863,0.6519914v0.0027408L0.1879307,0.6585009
		L0.1872454,0.661927L0.1851898,0.6656957v0.0058244L0.1845046,0.6728904L0.1824489,0.6749461L0.1817637,0.6770018
		L0.1831342,0.6804278z M0.185875,0.7345596L0.1821063,0.7373004H0.1814211l0.0006852-0.0020556L0.185875,0.7345596z
		 M0.1916993,0.6574731L0.1910141,0.6626123L0.1875881,0.6684366l0.0006852-0.0020556L0.1916993,0.6574731z M0.1961532,0.6574731
		v0.0027408L0.195468,0.6622696V0.6571305h0.0006852V0.6574731z M0.2026628,0.7307909h0.0013704l0.0006852,0.0027408
		L0.2040332,0.734217L0.2026628,0.7328466V0.7307909z M0.2040332,0.6077952l0.0006852-0.0044538l0.0027409-0.0020556
		l0.0006852-0.0058244H0.206774L0.2040332,0.6012857V0.6077952z M0.2054036,0.7191423L0.2040332,0.721198V0.7205127
		L0.2054036,0.7191423z M0.2105427,0.7273648L0.2098575,0.7294205H0.2071166l0.0006852-0.0020557H0.2105427z M0.2081445,0.5906649
		h0.0006852V0.5899796H0.2081445V0.5906649z M0.2160244,0.7235963v0.0020556L0.2139687,0.7270223l0.0006852-0.0006853
		L0.2160244,0.7235963z M0.2160244,0.5697658L0.2153392,0.5704511L0.214654,0.5690807L0.2160244,0.5697658z M0.2256174,0.7170867
		v0.0006852L0.2228765,0.7191423l0.0013704-0.0020556H0.2256174z M0.2232191,0.6934468h0.0006852V0.6927615H0.2232191V0.6934468z
		 M0.2448034,0.7119476l0.0027409-0.0027408l0.0006852,0.0027408L0.246859,0.713318L0.2441182,0.716744H0.2427478V0.7153736
		L0.2448034,0.7119476z M0.2571372,0.6776869L0.2636467,0.673233L0.2622763,0.668094H0.2609059L0.2588502,0.6701496
		L0.2567945,0.6766591L0.2571372,0.6776869z M0.2780362,0.6495932l0.0020557-0.0013704l0.0013704-0.0020556H0.2807771
		L0.2780362,0.6482228V0.6495932z M0.3040743,0.6804278L0.3033891,0.6811131L0.3027039,0.6838539L0.29825,0.6852243
		L0.29037,0.6917338L0.286944,0.6937894L0.2824901,0.6965303v0.0027408H0.2804344L0.279064,0.7006415V0.6992711l0.0164451-0.0171303
		h0.0013704L0.29825,0.682826l0.0027409-0.0020556L0.3040743,0.6804278z M0.2845457,0.6660383v0.0006853L0.28249,0.6674088
		l0.0006852-0.0006853L0.2845457,0.6660383z M0.2924257,0.6632975L0.301676,0.6533619V0.6513063H0.2989351L0.2975647,0.6564454
		L0.2948239,0.6571306l-0.003426,0.0065095h0.0010278V0.6632975z M0.29825,0.6437688l0.0020556-0.0013704L0.301676,0.6403428
		h0.0013704l0.013019-0.0143895l0.0013704-0.0058244l0.0044539-0.0027408l0.0006852-0.0020556l0.0058244-0.0058244
		l0.0006852-0.0020556H0.3263437L0.3212046,0.6125916v0.0013704L0.3160655,0.6204715l0.0006852-0.0020557H0.3153804
		L0.3133247,0.6204715H0.3126395v0.0020556h0.0006852v0.0006853L0.3119543,0.6259532H0.3098987L0.3092135,0.6280088H0.3064726
		L0.3037317,0.6300645l0.0006852,0.0020557L0.3023613,0.6328054v0.0013704L0.3009909,0.6355462L0.2996205,0.6376019
		L0.2975648,0.6403427L0.29825,0.6423984L0.29825,0.6437688z M0.3009908,0.628009l0.0034261-0.0013704l0.0027409-0.0037687
		H0.3057874L0.3044169,0.6249255l-0.003426,0.0013704L0.3009908,0.628009L0.3009908,0.628009z M0.3075004,0.6471949
		L0.309556,0.6465097l0.0027409-0.0027409l0.0020557-0.0006852L0.315723,0.6393149l0.0137043-0.0137043l0.0006853-0.0027408
		L0.3321682,0.620129H0.3301125L0.3249734,0.6273238L0.323603,0.6286942L0.3191492,0.6345186L0.3170935,0.6352038L0.307158,0.643769
		L0.3051023,0.647195L0.3037319,0.6485655L0.3030467,0.6513063L0.3075004,0.6471949z M0.3088708,0.6249255l0.0013704-0.0027408
		H0.3088708L0.3075004,0.6235551L0.3088708,0.6249255z M0.3126395,0.6615844V0.6602141H0.3119543L0.3112691,0.6608993
		L0.3126395,0.6615844z M0.3167507,0.6602141L0.322575,0.655075l0.0006853-0.0027408l0.0013704-0.0006853L0.3239455,0.6502785
		V0.6489081l0.003426-0.0027408L0.3266863,0.6468525L0.3253159,0.6495934l0.0006852,0.0013704L0.338335,0.6386299
		l0.0020556,0.0013704l0.0044538-0.0027408L0.3410758,0.6358891L0.341761,0.6338334l0.0092504-0.0085652l0.0013704-0.0020556
		l0.0027408-0.0027408H0.353067L0.3510113,0.6232126L0.3496409,0.6238979L0.3482705,0.6259535V0.6238979L0.3520392,0.619444
		l0.0013704-0.0020557l0.0065095-0.0065095L0.3585487,0.6101936L0.3578635,0.6088232H0.3571782L0.356493,0.6125919
		L0.3551226,0.6132771l0.0020556-0.0058244l0.0058244-0.0065095H0.3609469L0.3571782,0.6036841L0.3551226,0.6081379
		L0.3506687,0.6108787L0.3492983,0.6122491L0.3458723,0.6136196L0.3421035,0.6187586V0.616703l0.0181581-0.0181581
		l0.0013704-0.0020557l0.0020556-0.0027408L0.364373,0.592378L0.3578635,0.5982023H0.3571782l0.0013704-0.0020556
		L0.3558078,0.5954614L0.3492983,0.6012858v0.0027409L0.3472427,0.605397L0.3427888,0.6105361L0.340048,0.6119065
		L0.3355941,0.6163604L0.3349089,0.6177307L0.3342237,0.618416L0.3335384,0.6197864l0.0013704,0.0006852l0.0006853,0.0027408
		l0.0051391-0.0044538L0.3400479,0.6214994L0.3314827,0.6286942H0.3301123L0.3294271,0.631435L0.326001,0.6341758
		L0.3253157,0.6369166l0.0020557-0.0013704l0.0058244-0.0044538V0.629722l0.0020556-0.0020557l0.0027408-0.0013704
		l0.0034261-0.0065095L0.343474,0.6211568L0.3376496,0.6283516L0.3331958,0.6304072v0.0027409L0.3246306,0.6389724
		L0.3218898,0.6447967L0.3153803,0.6475376l-0.0037687,0.003426L0.312982,0.652334l0.0013704-0.0013704h0.0006852
		L0.3143524,0.6554175l-0.0006852,0.003426L0.3167507,0.6602141z M0.3184637,0.6495932v0.0013704L0.3170933,0.6516489
		l0.0006853-0.0013704L0.3184637,0.6495932z M0.3184637,0.6300646h0.0013704L0.3212045,0.628009l0.0027408-0.0051391H0.326001
		V0.6208142H0.3239453L0.3212045,0.6228698L0.3205193,0.6256106L0.3184636,0.6283514L0.3184637,0.6300646L0.3184637,0.6300646z
		 M0.3198342,0.6437688h0.0006852l0.0006853-0.0020556l0.0020556-0.0037687H0.3212048L0.3198344,0.6430836v0.0006852H0.3198342z
		 M0.3239455,0.620129l0.003426-0.0027408l0.0006853-0.0020557h0.0020556l0.0034261-0.0027408V0.6119065H0.3307977
		L0.3236029,0.6191013V0.620129H0.3239455z M0.3328532,0.6033413L0.3373071,0.597517l0.0027408-0.0020557H0.3379922
		L0.3366218,0.5961466L0.3352514,0.5982022H0.3307976L0.3301123,0.605397L0.3328532,0.6033413z M0.3328532,0.6091656
		l0.0044539-0.0020557l0.0006852,0.0013704l0.0044538-0.0020556l0.0051391-0.0085652V0.5944334l0.0027408-0.0044538H0.3489557
		L0.3475853,0.59135L0.3462149,0.5951187H0.3455296L0.3417609,0.5978595L0.3390201,0.5985448v0.0037687L0.3376497,0.6036839
		H0.338335l0.0006852,0.0013704H0.3376498L0.3355941,0.6064247L0.3349089,0.604369H0.3328532L0.332168,0.6077951
		L0.3328532,0.6091656z M0.3342237,0.6345186h0.0013704L0.3349088,0.6365742H0.3335384L0.3342237,0.6345186z M0.3342237,0.3350803
		l0.0020556-0.0006852H0.3349089L0.3342237,0.3350803z M0.340048,0.631435L0.3373072,0.6341758V0.6328054L0.340048,0.631435z
		 M0.3407331,0.6129343h0.0020557L0.340048,0.6163604L0.3393627,0.6149899L0.3407331,0.6129343z M0.3434741,0.5927205
		l0.0020557-0.0013704L0.346215,0.5892944H0.3441593L0.3434741,0.5920352V0.5927205z M0.3472428,0.6077952L0.3458723,0.610536
		L0.3438167,0.6119064V0.6098508L0.3472428,0.6077952z M0.3506688,0.5961466h0.0013704l0.0006853-0.0013704H0.3513541
		L0.3506688,0.5961466z M0.3558079,0.59923L0.3523819,0.6036839l0.0013704-0.0058244L0.3558079,0.59923z M0.3564931,0.5776458
		h0.0006852l0.0013704-0.0013704H0.3564931V0.5776458z M0.3636878,0.5718215l0.0020556-0.0085652H0.3650582L0.364373,0.565312
		L0.3623173,0.5697658L0.3585486,0.5749049L0.3636878,0.5718215z M0.359234,0.5927205l0.0044539-0.0034261H0.3630026
		L0.3585487,0.5920352L0.359234,0.5927205z M0.359234,0.6149899l0.0020557,0.0006853l0.0020556-0.0020556V0.6122491H0.3619749
		L0.359234,0.6149899z M0.3630026,0.6050544H0.364373L0.3701973,0.59923l0.0013704-0.003426l0.0027408-0.0020557l0.0027408-0.003426
		l0.0013704,0.0006852h0.0027408l0.0006852-0.0020556L0.3797902,0.5868962H0.3777345L0.3770493,0.589637L0.3749936,0.5910074
		v0.0013704H0.3736232L0.3630024,0.6040264L0.361632,0.6047117L0.3630026,0.6050544z M0.3681417,0.6177307L0.366086,0.6197864
		H0.3654008l0.0013704-0.0020557H0.3681417z M0.3681417,0.5906649L0.3708825,0.586211H0.3688268L0.3667712,0.5899797
		L0.3681417,0.5906649z M0.3671139,0.5738772h0.0006853V0.5731919H0.3671139V0.5738772z M0.3695122,0.5848406l0.0051391-0.0044538
		L0.3760217,0.577646l0.0013704-0.0034261L0.381846,0.5704512L0.3811607,0.5690808H0.3804754L0.3770494,0.5735346
		L0.3743086,0.5779884L0.3736233,0.5800442L0.3708825,0.5820998L0.3688268,0.5848406H0.3695122z M0.3701973,0.5711364
		l0.0006853-0.0020556H0.3695122L0.3701973,0.5711364z M0.3773921,0.6064247L0.3753364,0.6043691l0.0013704-0.0006852
		l0.0034261-0.0020557L0.3808182,0.600943l0.0020557-0.0027409h0.0020556L0.3821887,0.6016282L0.3777348,0.6081377
		L0.374994,0.6088229V0.6081377L0.3773921,0.6064247z M0.3886981,0.586211h0.0006852l0.0013704,0.0020556H0.3900685
		L0.3880128,0.5868962L0.3886981,0.586211z M0.3904111,0.5896371l0.0020556-0.0006853L0.393152,0.586211h0.0006852
		l0.0013704,0.0027408L0.3907538,0.5910075v0.0006853L0.3893834,0.592378V0.5916927L0.3904111,0.5896371z M0.3989763,0.5752476
		v0.0020556H0.3976059L0.3969206,0.576618L0.3989763,0.5752476z M0.3996615,0.5553764h0.0006853l0.0013704-0.0027408H0.4010319
		L0.3996615,0.5553764z M0.4010319,0.5632563l0.0006852,0.0044538L0.4003468,0.5683954L0.401032,0.5639416L0.4010319,0.5632563
		L0.4010319,0.5632563z M0.4024023,0.5488669l0.0013704-0.0006853L0.4024023,0.5468113H0.4010319L0.4024023,0.5488669z
		 M0.4048006,0.561886L0.4041154,0.5625712L0.4027449,0.5605155L0.4048006,0.561886z M0.4113101,0.5495521h0.0013704
		L0.4099397,0.5529782L0.410625,0.5536634L0.4071989,0.5574321H0.4065137V0.5553764L0.4113101,0.5495521z M0.4082267,0.5594876
		H0.4075414l0.0006853-0.0006853V0.5594876z M0.4113101,0.5320791h0.0006852l0.0044538-0.0027408l0.0006852-0.0027408
		l0.0006853-0.0006853l0.0051391-0.0099356l0.0006853-0.0006853V0.5146062L0.4222737,0.5152914H0.4209033v0.0020557
		L0.4157642,0.5272827L0.4113101,0.5320791z M0.414051,0.544413H0.4133658l0.0013704-0.0006853L0.414051,0.544413z
		 M0.4185049,0.533107V0.5310513l0.0020556,0.0006853L0.4191901,0.533107L0.4157641,0.5389314V0.5382461L0.4185049,0.533107z
		 M0.4198753,0.5437278L0.41919,0.5450982H0.4171344L0.41919,0.5437278H0.4198753z M0.4185049,0.5481817v0.0006853
		L0.4178196,0.5481817H0.4185049z M0.4191901,0.5019298l0.0027408-0.0020556l0.0027408-0.0071948L0.4239865,0.491309
		l0.0034261-0.0071948V0.4813734H0.4253569V0.483429L0.4239865,0.4847994L0.4233012,0.4875402L0.4212456,0.4919941
		L0.422616,0.4940498L0.4198752,0.4985036L0.4191901,0.5019298z M0.4212457,0.5416722l0.0006852,0.0013704H0.4212457
		L0.4205604,0.5416722H0.4212457z M0.4226162,0.533107l0.0006852,0.0006853L0.4219311,0.533107H0.4226162z M0.4239866,0.5221435
		V0.523514L0.4226162,0.5241992l0.0006852-0.0020556H0.4239866z M0.4246718,0.5272827H0.4233013l0.0006853-0.0013704
		L0.4246718,0.5272827z M0.4263848,0.4971333l0.0037687-0.0020557L0.4280978,0.5002167L0.4260422,0.4995315L0.4263848,0.4971333z
		 M0.4277553,0.523514l0.0006853,0.0006852L0.4256997,0.5279679V0.5272827L0.4277553,0.523514z M0.4335796,0.499189v0.0020556
		L0.4301535,0.5019299L0.4294682,0.5026152H0.4280978L0.4335796,0.499189z M0.4298109,0.4933646L0.4291256,0.4940499
		l0.0006852-0.0013704V0.4933646z M0.4311814,0.5228288L0.4304961,0.523514L0.4291257,0.5228288H0.4311814z M0.4318665,0.5033002
		h0.0006852L0.4311814,0.5084393H0.4304961L0.4318665,0.5033002z M0.4318665,0.5149488l0.0006852,0.0013704H0.4311814
		L0.4304961,0.5156339L0.4318665,0.5149488z M0.4342648,0.4789751l0.0006852-0.0006852h0.0013704L0.4342648,0.4803455
		L0.4335796,0.4824012L0.4328943,0.4817159L0.4342648,0.4789751z M0.4363205,0.502615L0.4356352,0.5084394L0.4335796,0.5091246
		H0.4328943L0.4363205,0.502615z M0.43495,0.5033002L0.4335796,0.5046706l0.0006852-0.0013704H0.43495z M0.4356352,0.494735
		L0.43495,0.4974758L0.4342647,0.4961054L0.4356352,0.494735z M0.440089,0.4961054l0.0006853,0.0006852l-0.0027408,0.003426
		l-0.0023983-0.001713L0.440089,0.4961054z M0.440089,0.4745212l0.0013704-0.0051391l0.0020557-0.0027408L0.4428299,0.4639005
		l0.0027408-0.0027408v0.0027408L0.4383759,0.4782901v0.0044538L0.4370055,0.4841143V0.4769195L0.440089,0.4745212z
		 M0.4390613,0.491309h0.0006852l0.0013704,0.0020556H0.4397465V0.4926794L0.4390613,0.491309z M0.4421447,0.4553353
		l0.0013704-0.0027408L0.4414594,0.4505388L0.4407742,0.4549926L0.4421447,0.4553353z M0.4442004,0.4731508L0.44283,0.4745212
		l0.0006852-0.0013704H0.4442004z M0.4455708,0.4385476L0.4448855,0.439918L0.4442003,0.4392327L0.4455708,0.4385476z"/>
	<path id="XMLID_92_" class="st0" d="M0.3989763,0.7732742L0.3969206,0.772589l0.0027408-0.0044538L0.398291,0.7653943
		l0.0013704-0.0099356l0.0020556-0.0013704L0.4003467,0.7520327l0.0195286-0.0849664l0.0013704-0.0027408L0.4219309,0.657816
		l0.0071948-0.0332329l0.0099356-0.0294642l0.0027408-0.016445L0.4455708,0.568053L0.4448855,0.5629139l0.0215842-0.075716
		l0.0006852-0.0065095l0.0020557-0.0085652V0.4683545l0.0006852-0.0020556L0.4671551,0.461845l0.003426-0.0065095
		l0.0006853-0.0027408L0.473322,0.4498538L0.4740073,0.447113l0.0006853-0.0013704l0.0027408-0.0085652l0.0027408-0.0123339
		l0.0013704-0.0034261l0.0020556-0.0058244l0.0006853-0.0013704L0.4849707,0.407028l0.0044538-0.0106208H0.490795
		l0.0051391-0.0274085l0.0013704-0.0027408l0.0020556-0.0085652l0.0058244-0.013019L0.5038141,0.3419329l0.0006853-0.0071948
		l0.0006852-0.0065095L0.511009,0.3182931l0.0013704-0.0013704l0.0013704-0.003426l0.0027408-0.0027408L0.527454,0.2864307
		L0.5367045,0.271356L0.543214,0.2686152h0.0106208L0.5624,0.2679299l0.0143895,0.0116486H0.583299l0.0020556-0.0006852
		l0.0027408-0.0020556L0.599744,0.2730689l0.0346033-0.0065095l0.0208991-0.0006853l0.0157599,0.0020557l0.0123339,0.0065095
		l0.0137042,0.0099356l0.0051391,0.0071948l0.0006853,0.0034261L0.703554,0.2970514v0.0034261l0.0044538,0.0006852
		L0.7100635,0.301848l0.0027408,0.0020557L0.7114339,0.3090428L0.7093782,0.3083575L0.7059522,0.3056167L0.7032114,0.3049314
		L0.701841,0.3069871l0.0020556,0.0034261L0.701841,0.3097279L0.7004706,0.3083575L0.6997853,0.3097279l0.0013704,0.0020557
		L0.7004704,0.3124688v0.0044538l0.0044538,0.0044539v0.003426L0.6925905,0.3227469L0.6853957,0.3306268L0.68334,0.3313121
		L0.6401716,0.3429607H0.6388012L0.6381159,0.3436459L0.6353751,0.3450163L0.6340047,0.3443311L0.6059109,0.3559797
		L0.6038553,0.3573501L0.5915214,0.3600909L0.590151,0.3621466L0.5850119,0.3642022L0.5822711,0.366943L0.5737059,0.403602
		L0.5699372,0.4101115L0.5685669,0.4173062h0.0044538l0.0150747-0.003426h0.0027408L0.593577,0.4131949l0.0099356-0.0027408
		L0.604883,0.4111393l0.0092504-0.0020556l0.0123339-0.0013704L0.6285229,0.407028l0.0380294-0.0051391l0.0106208-0.0006853
		L0.6764878,0.4056575L0.6730617,0.4083983v0.0027408L0.6686079,0.4145652L0.6751174,0.41388v0.0013704l0.0006853-0.0006853
		l0.0013704,0.0006853l0.0006852,0.0085652L0.6744322,0.4258712H0.6699784L0.668608,0.428612H0.6665523L0.6627836,0.4306676
		H0.6600428L0.6579872,0.4351215L0.6566167,0.4358068L0.6545611,0.4378624L0.649422,0.4406032l0.0006853-0.0013704
		L0.6442829,0.4436867L0.639829,0.4443719L0.6370882,0.4471127L0.6350326,0.447798L0.6343473,0.4491684L0.6322917,0.4484831
		L0.630236,0.4498535L0.6295508,0.4519092L0.6288655,0.4570483l0.0006853,0.0027408L0.6244116,0.4625299H0.622356
		L0.6124204,0.4683543L0.6072813,0.4734934L0.5973458,0.4762342L0.594605,0.4782898L0.5932345,0.4789751L0.5723355,0.491309
		H0.5709651L0.5572609,0.4957628L0.5552052,0.496448L0.5452696,0.4991889H0.543214L0.5387601,0.5029575L0.5243706,0.5546911
		v0.0006853L0.5236853,0.5567468L0.5209445,0.5646268L0.5164907,0.5803866l0.0020556-0.0006852L0.5192316,0.573877v0.0065095
		L0.517176,0.5824422L0.5158055,0.5831274v0.0013704L0.517176,0.5831274L0.5164907,0.5923779H0.5144351L0.5137498,0.5961466
		L0.5099811,0.6012857L0.5092958,0.6026561v0.0020557h0.0006853V0.6040265h0.0006853L0.5086107,0.6084803L0.5072403,0.6098508
		v0.0013704h0.0006852L0.5072403,0.6139619L0.5051846,0.6125916L0.5007308,0.6204715L0.4993604,0.6283514V0.630407
		L0.49799,0.6324627L0.4952492,0.6423982v0.0013704L0.486684,0.6667234l0.0006852,0.0037687L0.4808597,0.6804276L0.4822302,0.681798
		l0.003426-0.0020557L0.4863415,0.678372h0.0013704L0.483258,0.6841963v0.0027408L0.4812024,0.6913909H0.479832L0.4733225,0.71229
		L0.4719521,0.7143456v0.0013704L0.4674982,0.7215404H0.4637295l-0.003426,0.0065095L0.4589331,0.7253091L0.4561922,0.7318186
		L0.455507,0.733189L0.4541366,0.7352446L0.4513958,0.7386707L0.4507105,0.7407264h0.0037687v0.0006852L0.4486549,0.7458655
		L0.4472844,0.7479212L0.4428306,0.750662L0.4414602,0.7551158L0.4380341,0.7578566L0.4322098,0.7736166H0.4308394V0.772589
		H0.4301541v0.0020556H0.4287837L0.426728,0.7753299H0.4260428V0.7732742L0.4202184,0.7777281L0.4157646,0.7770428
		L0.4137089,0.7777281H0.4048006L0.4020598,0.7770428L0.3989763,0.7732742z M0.4421447,0.7575143L0.4414594,0.7588847H0.4407742
		l0.0006852-0.0013704H0.4421447z M0.4507099,0.7451804l0.0006852,0.0071948L0.4500247,0.75169L0.4493395,0.7472361
		L0.4507099,0.7451804z M0.4606454,0.7335318l0.0020557-0.0071948l0.0006852-0.0013704L0.462016,0.7342171L0.4592752,0.7349023
		L0.4572195,0.7400414H0.4565342L0.459275,0.733532h0.0013704V0.7335318z M0.4794888,0.6961877v0.0027408L0.4788035,0.6982433
		L0.4794888,0.6961877z M0.4887392,0.6646679l0.0013704-0.0013704V0.669807L0.488054,0.6756313L0.4859983,0.677687H0.4853131
		L0.4887392,0.6646679z M0.4873688,0.6848817h0.0006852v0.0027408H0.4866837L0.4873688,0.6848817z M0.4938783,0.6752887
		L0.4894245,0.6804278l0.0020556-0.0051391H0.4938783z M0.4904523,0.6626123L0.4911375,0.661927l0.0006853,0.0006853H0.4904523z
		 M0.4918227,0.6602141H0.4911374V0.656788L0.4918227,0.6602141z M0.495934,0.6588435v0.0006853L0.4931932,0.6629549
		l0.0013704-0.0034261L0.495934,0.6588435z M0.5003878,0.6372594L0.4997026,0.6379446H0.4990173l0.0006852-0.0006853H0.5003878z
		 M0.5017582,0.6286942V0.631435L0.5003878,0.6328054L0.4997026,0.6300646L0.5017582,0.6286942z M0.5068973,0.6163604
		L0.5048417,0.6221847H0.5034713l0.0020556-0.0065095L0.5068973,0.6163604z M0.5082678,0.6242403L0.5062122,0.6256108
		l0.0006853-0.0013704H0.5082678z M0.6638112,0.4330658v0.0006852H0.6631259V0.4330658H0.6638112z M0.6775154,0.4056573V0.407713
		L0.6754598,0.4097686L0.6747745,0.407713L0.6775154,0.4056573z"/>
	<path id="XMLID_110_" class="st0" d="M0.8491614,0.6156752L0.851217,0.6163604L0.8484762,0.626296L0.8447075,0.6269813
		l0.0006852,0.0044538L0.8433371,0.6372595l0.0013704,0.0044538l0.0013704-0.0051391L0.8440223,0.647195L0.843337,0.6492507
		L0.8419666,0.6513064L0.843337,0.6526768L0.8419666,0.6612419L0.843337,0.6626123L0.8405962,0.6698071l0.0020557,0.0065095
		L0.8419666,0.6828261l0.0006853,0.0006853l0.0006852,0.0013704L0.8405963,0.6862522l0.0051391-0.0020556v0.0006852
		L0.8450502,0.685567L0.8436798,0.6876227L0.844365,0.6883079L0.8416242,0.6910487L0.844365,0.6982435L0.8423094,0.6996139
		L0.8416241,0.7016696L0.8409389,0.70304L0.8388832,0.7002991L0.8361424,0.70304L0.8354571,0.7050956l0.0027409-0.0027408
		L0.8361422,0.7081792L0.8347719,0.7088645L0.8334014,0.7160592h0.0013704L0.8334014,0.7181149H0.8320311L0.8275772,0.7376435
		H0.8248364v0.0006852L0.8227807,0.7369583H0.8207251L0.8186694,0.7396991H0.817299L0.8166137,0.7434678H0.8152434
		L0.8138729,0.7396991H0.8118173L0.8083912,0.7468939H0.8070208L0.8049651,0.7513477h-0.006167l0.0006853,0.0020556
		L0.7929739,0.7592278L0.7916035,0.7636816L0.7871497,0.765052L0.7864644,0.7671077L0.7844087,0.7691633H0.7816678
		L0.7809826,0.7698486H0.7775565L0.7717322,0.7677929L0.763167,0.7513478L0.7617966,0.6924195L0.7611113,0.6903638
		l0.0013704-0.0116486L0.7617965,0.6742613V0.6643258L0.7624817,0.661585L0.7611113,0.6595293l0.0006853-0.0164451
		L0.7611113,0.6379452L0.763167,0.6300653L0.7624817,0.6286948L0.7617965,0.6228705V0.6201296l0.0013704-0.0123338
		L0.7611113,0.6091662L0.7597408,0.6125923L0.7532313,0.6146479L0.7525461,0.619787L0.7511756,0.6218427L0.7467218,0.622528
		L0.7453514,0.6283523L0.7388419,0.6341767L0.7316471,0.6413714L0.7302768,0.6420567L0.7217116,0.6492515L0.7165725,0.6513071
		L0.7121186,0.6550758L0.6919049,0.663641L0.6912196,0.6656966L0.6860805,0.6684374L0.6853953,0.6677521V0.6663818H0.68471
		L0.6795709,0.6708356h-0.000685V0.6694652l0.0020556-0.0020556L0.6758024,0.6694652l0.0006853,0.0037687L0.6737469,0.6746043
		L0.6620983,0.6903642L0.6555887,0.7026981L0.6432549,0.7198284H0.6418845L0.6391437,0.7211988L0.6384584,0.7256526
		L0.6312637,0.7270231l-0.013019,0.0085652H0.6155038L0.6103648,0.7376439L0.6096795,0.7342178H0.6083091L0.6038553,0.7458664
		L0.60317,0.7465517L0.6024848,0.744496L0.5966604,0.7516908H0.5959752L0.5952899,0.7510055H0.5932342L0.592549,0.7530612
		L0.5853542,0.7602559L0.5826134,0.7609412L0.5747335,0.7674507H0.5733631L0.5713074,0.7688211L0.5654831,0.7701915
		L0.562057,0.7688211L0.5593162,0.763682l0.0020556-0.0123339l0.0058243-0.0202138l0.0051391-0.0065095l0.0044538-0.0137042
		l0.0051391-0.0123339l0.0027408-0.0123339l0.0181581-0.0387145l0.0006852-0.0044538l0.013019-0.0274085l0.0006853-0.0020556
		l0.013019-0.0260382l0.0006853-0.0065095l0.0051391-0.0099356l0.0065095-0.0164451L0.64394,0.5526364l0.0027408-0.0034261
		l0.0027408-0.0065095l0.0006853-0.0006853l0.0044538-0.013019l0.0106208-0.0253528l0.0013704-0.0013704l0.0020557-0.0037687
		L0.6692928,0.496449L0.6771727,0.47555L0.677858,0.4734943l0.0085652-0.0157599l0.0013704-0.0051391l0.0188434-0.0404275
		l0.0013704-0.0020557L0.710063,0.4022322l0.0034261-0.0027408l0.0006853-0.0051391l0.0078799-0.0123339l0.0058243-0.0123339
		l0.0431684-0.074003l0.0157599-0.0215842l0.0092504-0.0092504l0.0071948-0.0006852l0.0034261-0.0013704l0.0092504,0.0006852
		l0.0071948,0.0027408l0.0058244,0.0071948L0.8268921,0.2768382l0.003426,0.0071948l0.0037687,0.0020557l0.0058243,0.0006852
		l0.0109634,0.0143895l0.0044538,0.0078799l0.0020557,0.0013704l0.003426,0.013019l0.0065095,0.0332329l0.0020556,0.0058244
		L0.8686901,0.367629l0.0013704,0.0027408v0.0404275L0.8680049,0.4179921l0.0013704,0.0058244L0.8635509,0.4481415
		L0.8608101,0.4546511h0.0027408L0.8614953,0.4591049v0.0020556h0.0006852v0.0006853L0.8608101,0.4625311l0.0006852,0.0020557
		h0.0006853V0.4639015H0.863551L0.8628657,0.4697258L0.8614953,0.4710962L0.8587545,0.4755501h0.0034261L0.8577268,0.48343
		L0.8563563,0.4919952l0.0013704,0.0020556L0.8556711,0.4985046h0.0013704L0.8590972,0.496449l0.0020556-0.0099356h0.0013704
		L0.8611528,0.4971342v0.0013704H0.8604676L0.8560137,0.4998751v0.0013704l0.0044538,0.0006853L0.8584119,0.5033011H0.8549858
		v0.0006852h0.0006853L0.8549858,0.5098107h0.0020556L0.8543007,0.5190611L0.852245,0.5211168l0.0013704,0.0020557
		l0.0013704,0.0013704L0.8543006,0.5252281H0.8529302L0.8515598,0.5286542H0.852245L0.8515598,0.535849H0.852245
		l0.0027408-0.0071948l0.0006853-0.0058244l0.0013704-0.0020556h0.0013704l0.0013704-0.0020556h-0.003426V0.5180333
		l0.003426-0.0027408v0.0037687L0.861838,0.5163203v0.0006852L0.8611527,0.5242004L0.8566989,0.526256l0.0020556,0.0027408
		L0.8553284,0.5317376L0.848819,0.5474976l0.0013704,0.0006852l0.0044538-0.0116486l0.0006852,0.0020557h0.0006853
		l0.0051391-0.0058244h0.0013704L0.8597824,0.5361916L0.8590972,0.5382472v0.0092505l0.0013704,0.0013704L0.8539581,0.5533219
		H0.8519024v0.0006853h0.0020556L0.8546433,0.558461L0.8519025,0.5605167l0.0020557,0.0013704h0.0006852L0.8525878,0.5632575
		H0.8512173L0.8491617,0.5639427L0.8484764,0.5618871L0.8477912,0.5625723L0.8471059,0.5731931h0.0013704l0.0013704-0.0020556
		l0.0020557,0.0006853L0.850532,0.5769619L0.8477912,0.585527v0.0044538L0.8457355,0.598546l0.0006852,0.0065095
		l0.0013704,0.0006853L0.8450504,0.6208155v0.0037687l0.0027408-0.0020556L0.8491614,0.6156752z M0.7117761,0.6012857
		l0.0387145-0.0085652H0.756315v0.0006853l0.0013704,0.0020556L0.7590558,0.594091l0.0020556,0.0013704h0.0013704
		l0.0013704-0.0085652l0.0006853-0.0123338L0.7638522,0.573192l0.0020557-0.0143895L0.7652227,0.5567468l0.0027408-0.0085652
		L0.7713895,0.46253H0.7700191L0.7648801,0.4734935L0.7621392,0.4755491L0.7556297,0.4937072L0.7542593,0.4957629
		L0.7456942,0.513921L0.7436385,0.5204305L0.7278786,0.555719L0.7271933,0.5570893l-0.0106208,0.028779L0.7121186,0.5937482
		L0.710063,0.6002577L0.7117761,0.6012857z M0.8340866,0.6451393L0.835457,0.6430836L0.8347718,0.6423984H0.8327161v0.0013704
		L0.8340866,0.6451393z M0.8385406,0.6307499l0.0006853-0.0006853l0.0013704-0.013019L0.8392258,0.6156752V0.60711H0.8378554
		L0.836485,0.62287l0.0013704,0.0013704L0.8385406,0.6307499z M0.8378553,0.6595288l0.0013704-0.0020556L0.8385404,0.6530193
		H0.8378552L0.8378553,0.6595288L0.8378553,0.6595288z M0.84505,0.6554175l0.0037687-0.0051391L0.849504,0.6482227
		l0.0006853-0.0058244l0.0034261-0.0051391l0.0006852-0.0027408L0.8536152,0.6321203l0.0013704-0.0099356l0.0020556,0.0027408
		L0.856356,0.6300646l0.0006853,0.0020556L0.8525875,0.6478802L0.851217,0.6485655v0.0013704L0.8474483,0.6526766v0.0044538
		L0.8440223,0.6598713l0.0013704-0.0027409L0.84505,0.6554175z M0.8464205,0.6725478L0.8443648,0.673233V0.6711774
		L0.8464205,0.6725478z M0.8464205,0.6770018V0.677687L0.8443648,0.6783723l0.0013704-0.0013704L0.8464205,0.6770018
		L0.8464205,0.6770018z M0.8443648,0.6955025l0.0020556-0.003426l0.0006853,0.0071948H0.8464205L0.8457352,0.6965303
		L0.8443648,0.6955025z M0.8464205,0.6365741L0.8477909,0.631435l0.0013704-0.0006853L0.8464205,0.6365741z M0.8471057,0.6770018
		L0.847791,0.6742609l0.0013704-0.0037687l0.0027408-0.0013704V0.6677514l0.0013704,0.0013704L0.8512169,0.6711775
		L0.8498465,0.6797427L0.8484761,0.6804279l0.0006853-0.0006852L0.8471057,0.6770018z M0.8477909,0.6831686l0.0006852-0.0006853
		L0.8477909,0.6876225L0.8471056,0.6883077V0.6876225L0.8477909,0.6831686z M0.8501891,0.5704511V0.567025l0.0027408,0.0044538
		L0.8508743,0.5721641L0.8488187,0.5735345H0.8481334L0.8501891,0.5704511z M0.8508744,0.5961466L0.8488188,0.597517
		l0.0020556-0.0034261l0.0013704-0.0013704l0.0051391-0.0071948l0.0006853-0.0013704l0.0006852,0.0013704L0.857384,0.5913501
		L0.8553284,0.5927205L0.853958,0.59923l0.0020556-0.0013704L0.8566989,0.595804h0.0013704L0.8560136,0.6043691L0.8553284,0.6029987
		L0.8501893,0.6101935H0.8488188l0.0034261-0.0123339L0.8508744,0.5961466z M0.8491614,0.5187175h0.0006853l0.003426-0.0071948
		L0.8519023,0.5101523L0.851217,0.5108376L0.8491614,0.5187175z M0.8508744,0.6537045v0.0013704L0.8501891,0.6537045H0.8508744z
		 M0.8508744,0.6913912L0.8501891,0.6927615V0.6913912H0.8508744z M0.8543005,0.6502784v0.0006852L0.8515596,0.6516489
		l0.0013704-0.0013704h0.0013704V0.6502784z M0.8543005,0.6831686L0.8529301,0.6876225l0.0027408-0.0034261l0.0006853,0.0020556
		L0.8529301,0.6883077H0.8515596l0.0013704-0.0051391H0.8543005z M0.8536152,0.5848406L0.8529299,0.5855259l0.0006853-0.0013704
		V0.5848406z M0.8556709,0.6797426l0.0006853-0.0013704v0.0020556H0.8529301l0.0006853-0.0006852H0.8556709z M0.8536152,0.6961877
		V0.696873L0.8529299,0.6996138L0.8536152,0.6961877z M0.8556709,0.5762755l0.0013704-0.0071948L0.8543005,0.567025
		l0.003426-0.0027408L0.8570413,0.5584599l0.0013704-0.0013704v0.0092504L0.8556709,0.5786737L0.8536152,0.5779884
		L0.8556709,0.5762755z M0.8556709,0.6129343h0.0013704L0.8556709,0.6156751v0.0006853L0.8543005,0.6156751L0.8556709,0.6129343z
		 M0.8549857,0.6718627v0.0020556L0.8543004,0.673233L0.8549857,0.6718627z M0.8556709,0.6626123L0.8549857,0.6598714
		l0.0020556-0.0020556v0.0020556L0.8549857,0.6677513V0.6650105L0.8556709,0.6626123z M0.8573839,0.5824423l0.0006853,0.0013704
		L0.8566988,0.5831274V0.5824422h0.0006852V0.5824423z M0.8601247,0.5098097L0.86081,0.5033002V0.5019298l0.0006853-0.0006852
		l0.0013704,0.0037687L0.8614953,0.5115227L0.8587544,0.5128931H0.8580692L0.8601247,0.5098097z"/>
	<path id="XMLID_139_" class="st0" d="M0.894728,0.7616255L0.8895889,0.7564864L0.8868481,0.7558011l-0.013019-0.0071948
		L0.8666343,0.7369578L0.8659491,0.729763V0.7160588l0.0051391-0.0157599l0.0020556-0.0051391l0.0006852-0.0034261
		l0.0137043-0.0137042l0.0058243-0.0051391l0.0020557-0.0006852l0.0058243-0.0044538h0.0044538l0.0027408,0.0013704
		l0.0044538,0.0006853l0.013019,0.0065095l0.0013704,0.0044538L0.9358408,0.683511l0.0065095,0.0058244l0.0051391,0.0013704
		L0.9539989,0.699271l0.0013704,0.0044538l0.0027408,0.0044538L0.962564,0.7174291L0.9605083,0.7218829l0.0027408,0.0065095
		L0.9611934,0.7290777H0.9591378L0.9577674,0.7277073H0.956397L0.9557117,0.7263369L0.9512579,0.7307907l-0.0013704,0.003426
		l-0.003426,0.0027409l-0.0006853,0.003426H0.9406371v0.0137043L0.9348127,0.759227L0.9334423,0.7619678L0.9320719,0.7561435
		H0.9307015L0.9293311,0.7588843L0.9272754,0.7551156L0.925905,0.7558008L0.9252198,0.7585416L0.9245345,0.7592269
		L0.9224789,0.7619677H0.9152841v0.0034261H0.9080893L0.9029502,0.7619677L0.894728,0.7616255z M0.9406373,0.7544308
		l0.0013704,0.0006853v0.0006853L0.9406373,0.7551161V0.7544308z"/>
</g>
</svg>
