<?xml version="1.0" encoding="utf-8"?>
<!-- Generator: Adobe Illustrator 19.0.0, SVG Export Plug-In . SVG Version: 6.00 Build 0)  -->
<svg version="1.1" id="Layer_2" xmlns="http://www.w3.org/2000/svg" xmlns:xlink="http://www.w3.org/1999/xlink" x="0px" y="0px"
	 viewBox="0 0 308 246" style="enable-background:new 0 0 308 246;" xml:space="preserve">
<style type="text/css">
	.st0{fill:#EC2527;}
</style>
<g id="XMLID_68_">
	<path id="XMLID_69_" class="st0" d="M85.1,181.9h0.2l0.4-0.6h0.2l1.3-1l-0.2,1l-0.8,0.4l-0.4,1.3l-0.8,0.2h-0.2l-0.6,0.4l-0.2-0.2
		l0.2-0.4l0.6-0.6V182h-0.7l-0.4,1.1l-0.6,0.6l0.4,1.5h0.2l1.1-0.4h0.4v0.6l-0.6,0.4l-0.8,0.2l-0.8,0.8l-1.1,1.7l-1,0.4l-0.4,0.6
		h-0.6l-0.2-0.2l2.9-2.3l-0.6-0.6h0.4l0.8-1.3h-0.4l-2.7,1.5l-1.5,1.7l-0.4,0.2v0.2l-0.6-0.4v-1.1h0.6l0.6-1.5l-0.2-0.4h-0.8
		l-0.6,1.3l-1.5,1.3l-0.8,0.2l-0.6,0.8l-0.4-1h-0.8l-0.4,0.6l-0.8,0.2l-0.8,0.8l-0.4,0.6l-0.2,0.2l0.6,0.6l1.7-1.5v0.8l-1.9,1.3v0.8
		h-0.4l-0.4,0.4l-1.9,0.8l-0.2-0.8l-0.4,0.2l-0.2,0.6l-0.4,0.4v0.8l-1.7,1l-0.6,0.2l-2.1,2.5l0.2-0.6h-0.6l-1.1,1.3l-1.3,1H60
		l0.6-0.4h0.6l-0.4,0.8h-0.4l-0.4,0.8l-1.3,0.2l-0.8-0.4l-0.2,1l-0.6,0.2l-0.4,0.2l-1,0.2l-0.8,0.6l-0.6,0.2l-0.2,0.4l-1.5,0.4h-1
		l-1.3,0.8l-0.8-0.2l-0.2,0.6h-0.6l-0.4-1.1h-0.4l-0.6,1.1l-0.4,0.6h-0.4l-1.3,0.8l-0.8,0.2l0.2,0.6l-0.6-0.6h-0.9l-0.2,0.6
		l-0.8,1.5l-1.1,0.2l-0.4,0.2H40l-0.2,0.6h-0.7l-1,0.8h-1.7l0.2,0.6h-0.8l-0.4-0.6l-1.5,1.3l-0.2-0.2h-1.3l-0.8,0.4l-2.1,0.4h-1.3
		l0.4-0.2l-0.2-0.6l-0.2-2.5l3.8-9.9l1.3-4.6l-0.2-0.4l3.1-11.1l1-3.4l0.2-1.7l0.2-0.4l0.6-1.9v-0.6l0.6-3.6l0.4-0.8l0.6-3.2
		l0.2-0.6l0.2-1.3l0.2-0.6l1.9-7.4l0.2-0.2l1.3-6.1l1.1-2.9l0.2-2.7l0.2-0.4l2.5-11.1l0.8-2.5v-0.8l0.8-2.7l5.5-23.7l0.2-0.6
		l0.6-3.4l0.2-2.9l1-1.5l0.8-6.3l0.8-2.1v-1.9l0.8-3.4l2.5-6.7V75l0.8-0.8l0.6-1.7l1.3-1.9l1.3-3.4l1.1-1l1.3-0.8l0.4-0.6l0.4-0.4
		v-0.6l1.3-0.6l2.3-0.4l1.5,0.6l1.5-0.4l0.6,0.2l0.4,0.8l1.7,0.6L80,65h0.8l10.3,2.1l2.3,1.1l1.3,0.2l3.6,1.5l5.5,2.7l5.3,3.4
		l2.9,2.1l0.4,0.4l5.5,4.8l4.4,5v0.4l1,1.3l-0.2,0.6l1.9,2.3l1.9,4h0.4l-0.4,1.3h0.6l0.2,0.8l0.6,0.8l0.2,0.6l0.6,0.6l2.3,5.3
		l0.6,0.6l1.5,4.8v0.4l0.6,0.4l0.2,1.7v2.1h-0.6l-0.6-0.4h-0.4v3.8h0.2l0.6-1.7l-0.2,1.7h0.4l-0.2,0.8l-1.1,2.7l-0.2,0.4l-0.2,0.2
		l0.4,0.2l0.2,0.4l-0.6,0.2l-0.4,0.6l-0.2,0.8l-0.4,1h0.1v-0.8l0.6-0.8l-0.6-1.7l-0.2,0.2l-0.4,2.7l-1,0.4l0.4,0.8h-0.4l0.2,1.1
		l0.2,0.2v0.6l-0.6,0.2l0.2,0.4h-0.2l-0.2,0.6l-0.6,0.6l0.4,0.4l-0.8,0.6v1.5l-0.6,1.1l-0.2,0.2l-0.6,1v1.1h0.4l0.2-0.8v1.1h0.2
		l1-1.7h-0.2l-0.4,0.4v-0.2l0.2-0.2l-0.2-0.6l1.3,0.6l-0.6,2.5h-0.2v1.5h-0.2l-0.4-0.4h-0.2l-0.2,1.3l-0.6,0.6l0.4,0.2l-0.6,0.6
		v-0.2h-0.5l-0.4,1.3l-1.3,1.7L124,147l-0.4,0.6l-0.2,0.2h0.8l-0.4,0.6l-0.4,0.8l-1.5,1.5l-1.3,1.9v1.3l-0.6,0.6v0.4l0.4,0.2
		l-0.4,0.4l-0.6-0.4l-0.6,1.3l-0.2,1.1l-0.6,0.8l-0.4,0.6l-0.4,0.4v0.6l-0.4,1.9l-0.8-0.4l-0.9,1.6l-0.4,0.2l-1.5,1.5h-0.4l0.2,1.3
		l-0.4,0.2v-0.4l-1.9,1.9l0.4,0.4l-2.5,2.3l-0.2,0.8l-1.9,1.5l-0.2,0.6l-0.8,1.3l-1.1,0.8l-0.4,0.8h-1l-0.4,0.8H102l-1,1.3v0.6
		l-0.6,0.8l-0.4,0.6l-1.3,1.3l-0.8,0.4l-0.6,0.8l-0.4,1l-1.7,1.5l-0.2,0.2h-0.4l-0.6,0.6l-1.1,0.8v-0.8h-0.2l-0.6,0.2l0.2-0.4
		l1.9-1.7l1.5-1.9h-0.6l-0.4,0.2l-0.2-0.2h-0.4l-0.2,0.8l-0.4,0.8l-0.4,0.4l-1,1.3l-1.7,1.3h-0.6l-1.7,1.3l-0.6,1l-0.2,0.2h-0.4
		l-2.9,2.7v0.2l-0.6,0.2l-2.3,1.7l-0.6,0.8h-0.6v-0.2l1.1-0.4l0.8-1.3V193h-0.4l-1.1,1l-0.2,0.4l-1.3,0.8l-0.2,0.4h-1.1l-0.2-0.4
		l1.1-0.8H79l0.6-0.6l0.8-0.2l0.6-1.3l0.6-1.1h0.2l0.4,1.3l1.7-1.5l0.6-0.4l0.4-0.4l0.8-0.2l-0.2-1l-0.6,0.4V189l0.8-0.6l0.2-0.6
		l0.4-0.4l0.4,0.6l0.8-0.2l2.3-2.3l0.8-1.5l0.8-0.4l1.9-2.1l0.6-0.6l1-0.8l-0.2-0.4h-0.8l-1.3,1.7l-0.4,0.4l-1.7,1.5l-0.6,1.3
		l-0.6-0.6l-0.4,0.4l-4.4,3.6h-0.8l1.9-1.9l0.8-1v-0.4H87l1-1.5l0.2-0.8h0.2v0.4h0.4l0.2-2.1l0.8-0.8l1.3-1.5h-1l-1.5,1.3l-0.4,1.1
		v-1.3l0.8-1.3v-0.4l-1.1,0.2l-0.4,1.5l-1.9,1.3l-0.2,0.8h-0.3V181.9z M57.4,187.1l1.5-1.3l0.4-0.8h0.2l0.4-0.4l0.4-3.4l0.2,0.8
		l-0.4,2.3l0.6,0.2l0.8-1.1h1.1l4.8-4.8l1.3-0.6l0.8-0.6l4.8-3.6l0.2-0.2l9.7-8.4l0.4-0.2l0.6-1.3h0.4l3.4-3.1l1-0.2l-0.2-0.8
		l3.1-3.1l0.6-0.4l1.7-1.9v-0.4l1.3-1.1h0.4l-0.2-1l1.5-1.1h0.4l2.3-2.9l0.8-1.7l0.6-0.4l3.6-4.2l0.6-1.7l0.6-0.4l3.6-5.7l2.5-4.6
		v-0.8l1.1-1.9l1.7-5.3v-2.1l0.6-0.6l0.2-1.7l-0.6-0.6l0.8-2.5l-0.6-1.3l0.2-1l-0.4-4.2l-1.3-4.2l-0.8-1l-0.6-0.2l-0.2-0.6h-0.6
		l-3.8-6.1l-5.9-6.3l-0.4-0.2l-6.3-4.2l-5.5-2.3l-7.1-1.7l0.2,0.4l0.4,4l-0.6,5.5l-1.5,5v2.1l-1.5,5.9l-0.2,0.4l-0.2,2.1L76.9,119
		l-0.2,2.5l-0.4,0.6l-0.2,1l-0.2,0.6l-0.2,0.4l0.2,0.4l-0.8,3.8l-0.6,1.5l-0.6,0.6l-0.6,1.7l-0.4,0.6l-0.2,1.9l-0.6,0.8v0.8
		l-0.8,0.8l-0.2,1.7l-0.4,0.6l-0.2,1.1h0.2l0.2-0.4l0.4-1.1h0.2l-0.2,0.6l-0.2,1.5l-0.8,0.8l0.2,0.4l-0.4,0.6v1.5l-0.4,0.8l0.2,0.2
		h0.4l-0.2,0.2l-0.4,0.2l-0.2,0.4l-0.6,1.5l0.4,0.4v0.8l-1.3,2.1l-0.4,0.2l0.2,1l-0.8,0.4l-0.4,1.9l0.2,0.6l-0.4,0.8v0.8h0.2
		l0.2-0.4l0.8-1l0.4,0.6l-1.7,2.1l-0.2,0.8l-1,0.2l0.4,0.4l0.4-0.2h0.2l0.4,0.6l-0.6,0.8l0.2,0.4l-0.4,2.5l-0.6,0.6l-0.8,1.9
		l-0.2,1.7h0.6v0.4l-0.6,1l-0.4,0.8l-0.6,0.4l-0.4,1.1v1.5l0.8-1.7v0.8l-0.4,0.6v1.5l-0.6,0.2l-0.2,1.1l-0.6,0.8l0.2,0.2l0.6-0.4
		h0.2l0.2,0.8l-1.1,1.9l-1,0.6l-0.4,1.3l0.2-2.1l-0.4-0.8l1.3-0.8l-0.2-0.8l0.8-2.3V172h-0.2l-0.8,0.8l-1,2.9l0.2,0.8h0.2l0.2,0.2
		l-0.2,0.2l-1.1,1.9v0.8l-0.6,1.1l-0.2,1l-0.6,1.1v1.7l-0.2,0.4l-0.6,0.6l-0.2,0.6L57.4,187.1z M58.2,202.9l-1.1,0.8h-0.2l0.2-0.6
		L58.2,202.9z M59.9,180.4l-0.2,1.5l-1,1.7l0.2-0.6L59.9,180.4z M61.2,180.4v0.8l-0.2,0.6v-1.5h0.2V180.4z M63.1,201.8h0.4l0.2,0.8
		l-0.2,0.2l-0.4-0.4V201.8z M63.5,165.9l0.2-1.3l0.8-0.6l0.2-1.7h-0.4l-0.8,1.7V165.9z M63.9,198.4l-0.4,0.6v-0.2L63.9,198.4z
		 M65.4,200.8l-0.2,0.6h-0.8l0.2-0.6H65.4z M64.7,160.9h0.2v-0.2h-0.2V160.9z M67,199.7v0.6l-0.6,0.4l0.2-0.2L67,199.7z M67,154.8
		l-0.2,0.2l-0.2-0.4L67,154.8z M69.8,197.8v0.2l-0.8,0.4l0.4-0.6H69.8z M69.1,190.9h0.2v-0.2h-0.2V190.9z M75.4,196.3l0.8-0.8
		l0.2,0.8l-0.4,0.4l-0.8,1h-0.4v-0.4L75.4,196.3z M79,186.3l1.9-1.3l-0.4-1.5h-0.4l-0.6,0.6l-0.6,1.9L79,186.3z M85.1,178.1l0.6-0.4
		l0.4-0.6h-0.2l-0.8,0.6V178.1z M92.7,187.1l-0.2,0.2l-0.2,0.8l-1.3,0.4l-2.3,1.9l-1,0.6l-1.3,0.8v0.8h-0.6l-0.4,0.4v-0.4l4.8-5h0.4
		l0.4,0.2l0.8-0.6L92.7,187.1z M87,182.9v0.2l-0.6,0.2l0.2-0.2L87,182.9z M89.3,182.1l2.7-2.9v-0.6h-0.8l-0.4,1.5l-0.8,0.2l-1,1.9
		h0.3V182.1z M91,176.4l0.6-0.4l0.4-0.6h0.4l3.8-4.2l0.4-1.7l1.3-0.8l0.2-0.6l1.7-1.7l0.2-0.6h-0.8l-1.5,1.5v0.4l-1.5,1.9l0.2-0.6
		H96l-0.6,0.6h-0.2v0.6h0.2v0.2l-0.4,0.8h-0.6l-0.2,0.6h-0.8l-0.8,0.6l0.2,0.6l-0.6,0.2v0.4l-0.4,0.4l-0.4,0.6l-0.6,0.8L91,176
		L91,176.4z M91.8,171.8l1-0.4l0.8-1.1h-0.4l-0.4,0.6l-1,0.4L91.8,171.8L91.8,171.8z M93.7,177.4l0.6-0.2l0.8-0.8l0.6-0.2l0.4-1.1
		l4-4l0.2-0.8l0.6-0.8h-0.6l-1.5,2.1l-0.4,0.4l-1.3,1.7l-0.6,0.2l-2.9,2.5l-0.6,1l-0.4,0.4l-0.2,0.8L93.7,177.4z M94.1,170.9
		l0.4-0.8h-0.4l-0.4,0.4L94.1,170.9z M95.2,181.6v-0.4H95l-0.2,0.2L95.2,181.6z M96.4,181.2l1.7-1.5l0.2-0.8l0.4-0.2l-0.2-0.4v-0.4
		l1-0.8l-0.2,0.2l-0.4,0.8l0.2,0.4l3.6-3.6l0.6,0.4l1.3-0.8l-1.1-0.4l0.2-0.6l2.7-2.5l0.4-0.6l0.8-0.8H107l-0.6,0.8l-0.4,0.2
		l-0.4,0.6v-0.6l1.1-1.3l0.4-0.6l1.9-1.9l-0.4-0.2l-0.2-0.4h-0.2l-0.2,1.1l-0.4,0.2l0.6-1.7l1.7-1.9h-0.6l-1.1,0.8l-0.6,1.3
		l-1.3,0.8l-0.4,0.4l-1,0.4l-1.1,1.5v-0.6l5.3-5.3l0.4-0.6l0.6-0.8l0.2-0.4l-1.9,1.7h-0.2l0.4-0.6l-0.8-0.2l-1.9,1.7v0.8l-0.6,0.4
		l-1.3,1.5l-0.8,0.4l-1.3,1.3l-0.2,0.4l-0.2,0.2l-0.2,0.4l0.4,0.2l0.2,0.8l1.5-1.3l-0.2,0.8l-2.5,2.1h-0.4l-0.2,0.8l-1,0.8l-0.2,0.8
		l0.6-0.4l1.7-1.3v-0.4l0.6-0.6l0.8-0.4l1-1.9l0.6,0.4l-1.7,2.1l-1.3,0.6v0.8l-2.5,1.7l-0.8,1.7l-1.9,0.8l-1.1,1l0.4,0.4l0.4-0.4
		h0.2l-0.2,1.3l-0.2,1L96.4,181.2z M96.9,178.1v0.4l-0.4,0.2l0.2-0.4L96.9,178.1z M96.9,172.4h0.4l0.4-0.6l0.8-1.5h0.6v-0.6h-0.6
		l-0.8,0.6l-0.2,0.8l-0.6,0.8L96.9,172.4L96.9,172.4z M97.3,176.4h0.2l0.2-0.6l0.6-1.1h-0.6l-0.4,1.5L97.3,176.4L97.3,176.4z
		 M98.5,169.5l1-0.8l0.2-0.6h0.6l1-0.8v-0.2h-0.8l-2.1,2.1L98.5,169.5L98.5,169.5z M101.1,164.6l1.3-1.7l0.8-0.6h-0.6l-0.4,0.2
		l-0.4,0.6h-1.3l-0.2,2.1L101.1,164.6z M101.1,166.3l1.3-0.6l0.2,0.4l1.3-0.6l1.5-2.5v-1l0.8-1.3h-0.4l-0.4,0.4l-0.4,1.1h-0.2
		l-1.1,0.8l-0.8,0.2v1.1l-0.4,0.4h0.2l0.2,0.4h-0.4l-0.6,0.4l-0.2-0.6h-0.6l-0.2,1L101.1,166.3z M101.5,173.7h0.4l-0.2,0.6h-0.4
		L101.5,173.7z M101.5,86.3l0.6-0.2h-0.4L101.5,86.3z M103.2,172.8l-0.8,0.8v-0.4L103.2,172.8z M103.4,167.4h0.6l-0.8,1L103,168
		L103.4,167.4z M104.2,161.5l0.6-0.4l0.2-0.6h-0.6l-0.2,0.8V161.5z M105.3,165.9l-0.4,0.8l-0.6,0.4v-0.6L105.3,165.9z M106.3,162.5
		h0.4l0.2-0.4h-0.4L106.3,162.5z M107.8,163.4l-1,1.3l0.4-1.7L107.8,163.4z M108,157.1h0.2l0.4-0.4H108V157.1z M110.1,155.4l0.6-2.5
		h-0.2l-0.2,0.6l-0.6,1.3l-1.1,1.5L110.1,155.4z M108.8,161.5l1.3-1h-0.2l-1.3,0.8L108.8,161.5z M108.8,168l0.6,0.2l0.6-0.6v-0.4
		h-0.4L108.8,168z M109.9,165.1h0.4l1.7-1.7l0.4-1l0.8-0.6l0.8-1l0.4,0.2h0.8l0.2-0.6l-0.6-0.6h-0.6l-0.2,0.8l-0.6,0.4v0.4H113
		l-3.1,3.4l-0.4,0.2L109.9,165.1z M111.4,168.8l-0.6,0.6h-0.2l0.4-0.6H111.4z M111.4,160.9l0.8-1.3h-0.6l-0.6,1.1L111.4,160.9z
		 M111.1,156h0.2v-0.2h-0.2V156z M111.8,159.2l1.5-1.3l0.4-0.8l0.4-1l1.3-1.1l-0.2-0.4H115l-1,1.3l-0.8,1.3l-0.2,0.6l-0.8,0.6
		l-0.6,0.8H111.8z M112,155.2l0.2-0.6h-0.4L112,155.2z M114.1,165.5l-0.6-0.6l0.4-0.2l1-0.6l0.2-0.2l0.6-0.8h0.6l-0.8,1l-1.3,1.9
		l-0.8,0.2V166L114.1,165.5z M117.4,159.6h0.2l0.4,0.6h-0.2l-0.6-0.4L117.4,159.6z M117.9,160.6l0.6-0.2l0.2-0.8h0.2l0.4,0.8
		L118,161v0.2l-0.4,0.2v-0.2L117.9,160.6z M120.4,156.4v0.6H120l-0.2-0.2L120.4,156.4z M120.6,150.6h0.2l0.4-0.8H121L120.6,150.6z
		 M121,152.9l0.2,1.3l-0.4,0.2l0.2-1.3L121,152.9L121,152.9z M121.4,148.7l0.4-0.2l-0.4-0.4H121L121.4,148.7z M122.1,152.5l-0.2,0.2
		l-0.4-0.6L122.1,152.5z M124,148.9h0.4l-0.8,1l0.2,0.2l-1,1.1h-0.2v-0.6L124,148.9z M123.1,151.8h-0.2l0.2-0.2V151.8z M124,143.8
		h0.2l1.3-0.8l0.2-0.8l0.2-0.2l1.5-2.9l0.2-0.2v-0.2l-0.4,0.2h-0.4v0.6l-1.5,2.9L124,143.8z M124.8,147.4h-0.2l0.4-0.2L124.8,147.4z
		 M126.1,144.1v-0.6l0.6,0.2l-0.4,0.4l-1,1.7v-0.2L126.1,144.1z M126.5,147.2l-0.2,0.4h-0.6l0.6-0.4H126.5z M126.1,148.5v0.2
		l-0.2-0.2H126.1z M126.3,135l0.8-0.6l0.8-2.1l-0.2-0.4l1-2.1V129h-0.6v0.6l-0.4,0.4l-0.2,0.8l-0.6,1.3l0.4,0.6l-0.8,1.3L126.3,135z
		 M126.9,146.6l0.2,0.4h-0.2l-0.2-0.4H126.9z M127.3,144.1l0.2,0.2l-0.4-0.2H127.3z M127.7,140.9v0.4l-0.4,0.2l0.2-0.6H127.7z
		 M127.9,142.4h-0.4l0.2-0.4L127.9,142.4z M128.4,133.6l1.1-0.6l-0.6,1.5l-0.6-0.2L128.4,133.6z M128.8,141.3l0.2,0.2l-0.8,1.1v-0.2
		L128.8,141.3z M130.5,134.2v0.6l-1,0.2l-0.2,0.2h-0.4L130.5,134.2z M129.4,132.5l-0.2,0.2l0.2-0.4V132.5z M129.8,141.1l-0.2,0.2
		l-0.4-0.2H129.8z M130,135.4h0.2l-0.4,1.5h-0.2L130,135.4z M130,138.8l0.2,0.4h-0.4l-0.2-0.2L130,138.8z M130.7,128.3l0.2-0.2h0.4
		l-0.6,0.6l-0.2,0.6l-0.2-0.2L130.7,128.3z M131.3,135.2l-0.2,1.7l-0.6,0.2h-0.2L131.3,135.2z M130.9,135.4l-0.4,0.4l0.2-0.4H130.9z
		 M131.1,132.9l-0.2,0.8l-0.2-0.4L131.1,132.9z M132.4,133.3l0.2,0.2l-0.8,1l-0.7-0.5L132.4,133.3z M132.4,127l0.4-1.5l0.6-0.8
		l-0.2-0.8l0.8-0.8v0.8l-2.1,4.2v1.3l-0.4,0.4v-2.1L132.4,127z M132.1,131.9h0.2l0.4,0.6h-0.4v-0.2L132.1,131.9z M133,121.4l0.4-0.8
		l-0.6-0.6l-0.2,1.3L133,121.4z M133.6,126.6l-0.4,0.4l0.2-0.4H133.6z M134,116.5l-0.2,0.4l-0.2-0.2L134,116.5z"/>
	<path id="XMLID_92_" class="st0" d="M120.4,214.2l-0.6-0.2l0.8-1.3l-0.4-0.8l0.4-2.9l0.6-0.4l-0.4-0.6l5.7-24.8l0.4-0.8l0.2-1.9
		l2.1-9.7l2.9-8.6l0.8-4.8l1.1-3.1l-0.2-1.5l6.3-22.1l0.2-1.9l0.6-2.5v-1.1l0.2-0.6l-0.8-1.3l1-1.9l0.2-0.8l0.6-0.8l0.2-0.8l0.2-0.4
		l0.8-2.5l0.8-3.6l0.4-1l0.6-1.7l0.2-0.4l0.2-2.1l1.3-3.1h0.4l1.5-8l0.4-0.8l0.6-2.5l1.7-3.8l-0.4-0.8l0.2-2.1l0.2-1.9l1.7-2.9
		l0.4-0.4l0.4-1l0.8-0.8l3.2-7.1l2.7-4.4l1.9-0.8h3.1l2.5-0.2l4.2,3.4h1.9l0.6-0.2l0.8-0.6l3.4-1.1l10.1-1.9l6.1-0.2l4.6,0.6
		l3.6,1.9l4,2.9l1.5,2.1l0.2,1l0.2,0.6v1l1.3,0.2l0.6,0.2l0.8,0.6l-0.4,1.5l-0.6-0.2l-1-0.8l-0.8-0.2l-0.4,0.6l0.6,1l-0.6-0.2
		l-0.4-0.4l-0.2,0.4l0.4,0.6l-0.2,0.2V81l1.3,1.3v1l-3.6-0.6L204,85l-0.6,0.2l-12.6,3.4h-0.4l-0.2,0.2l-0.8,0.4L189,89l-8.2,3.4
		l-0.6,0.4l-3.6,0.8l-0.4,0.6l-1.5,0.6l-0.8,0.8l-2.5,10.7l-1.1,1.9l-0.4,2.1h1.3l4.4-1h0.8l0.8-0.2l2.9-0.8l0.4,0.2l2.7-0.6
		l3.6-0.4l0.6-0.2l11.1-1.5l3.1-0.2l-0.2,1.3l-1,0.8v0.8l-1.3,1l1.9-0.2v0.4l0.2-0.2l0.4,0.2l0.2,2.5l-1,0.6h-1.3l-0.4,0.8h-0.6
		l-1.1,0.6h-0.8l-0.6,1.3l-0.4,0.2l-0.6,0.6l-1.5,0.8l0.2-0.4L192,118l-1.3,0.2l-0.8,0.8l-0.6,0.2l-0.2,0.4l-0.6-0.2l-0.6,0.4
		l-0.2,0.6l-0.2,1.5l0.2,0.8l-1.5,0.8h-0.6l-2.9,1.7l-1.5,1.5l-2.9,0.8l-0.8,0.6l-0.4,0.2l-6.1,3.6h-0.4l-4,1.3l-0.6,0.2l-2.9,0.8
		h-0.6l-1.3,1.1l-4.2,15.1v0.2l-0.2,0.4l-0.8,2.3l-1.3,4.6l0.6-0.2l0.2-1.7v1.9l-0.6,0.6l-0.4,0.2v0.4l0.4-0.4l-0.2,2.7h-0.6
		l-0.2,1.1l-1.1,1.5l-0.2,0.4v0.6h0.2v-0.2h0.2l-0.6,1.3l-0.4,0.4v0.4h0.2l-0.2,0.8l-0.6-0.4l-1.3,2.3l-0.4,2.3v0.6l-0.4,0.6
		l-0.8,2.9v0.4l-2.5,6.7l0.2,1.1l-1.9,2.9l0.4,0.4l1-0.6l0.2-0.4h0.4l-1.3,1.7v0.8l-0.6,1.3H144l-1.9,6.1l-0.4,0.6v0.4l-1.3,1.7
		h-1.1l-1,1.9l-0.4-0.8l-0.8,1.9l-0.2,0.4l-0.4,0.6l-0.8,1l-0.2,0.6h1.1v0.2l-1.7,1.3l-0.4,0.6l-1.3,0.8l-0.4,1.3l-1,0.8l-1.7,4.6
		h-0.4V214h-0.2v0.6h-0.4l-0.6,0.2h-0.2v-0.6l-1.7,1.3l-1.3-0.2l-0.6,0.2h-2.6l-0.8-0.2L120.4,214.2z M133,209.6l-0.2,0.4h-0.2
		l0.2-0.4H133z M135.5,206l0.2,2.1l-0.4-0.2l-0.2-1.3L135.5,206z M138.4,202.6l0.6-2.1l0.2-0.4l-0.4,2.7L138,203l-0.6,1.5h-0.2
		l0.8-1.9L138.4,202.6L138.4,202.6z M143.9,191.7v0.8l-0.2-0.2L143.9,191.7z M146.6,182.5l0.4-0.4v1.9l-0.6,1.7l-0.6,0.6h-0.2
		L146.6,182.5z M146.2,188.4h0.2v0.8H146L146.2,188.4z M148.1,185.6l-1.3,1.5l0.6-1.5H148.1z M147.1,181.9l0.2-0.2l0.2,0.2H147.1z
		 M147.5,181.2h-0.2v-1L147.5,181.2z M148.7,180.8v0.2l-0.8,1l0.4-1L148.7,180.8z M150,174.5l-0.2,0.2h-0.2l0.2-0.2H150z M150.4,172
		v0.8l-0.4,0.4l-0.2-0.8L150.4,172z M151.9,168.4l-0.6,1.7h-0.4l0.6-1.9L151.9,168.4z M152.3,170.7l-0.6,0.4l0.2-0.4H152.3z
		 M197.7,114.9v0.2h-0.2v-0.2H197.7z M201.7,106.9v0.6l-0.6,0.6l-0.2-0.6L201.7,106.9z"/>
	<path id="XMLID_110_" class="st0" d="M251.8,168.2l0.6,0.2l-0.8,2.9l-1.1,0.2l0.2,1.3l-0.6,1.7l0.4,1.3l0.4-1.5l-0.6,3.1l-0.2,0.6
		l-0.4,0.6l0.4,0.4l-0.4,2.5l0.4,0.4l-0.8,2.1l0.6,1.9l-0.2,1.9l0.2,0.2l0.2,0.4l-0.8,0.4l1.5-0.6v0.2l-0.2,0.2l-0.4,0.6l0.2,0.2
		l-0.8,0.8l0.8,2.1l-0.6,0.4l-0.2,0.6l-0.2,0.4l-0.6-0.8l-0.8,0.8l-0.2,0.6l0.8-0.8l-0.6,1.7l-0.4,0.2l-0.4,2.1h0.4l-0.4,0.6h-0.4
		l-1.3,5.7h-0.8v0.2l-0.6-0.4h-0.6l-0.6,0.8h-0.4l-0.2,1.1h-0.4l-0.4-1.1h-0.6l-1,2.1h-0.4l-0.6,1.3h-1.8l0.2,0.6l-1.9,1.7l-0.4,1.3
		l-1.3,0.4l-0.2,0.6l-0.6,0.6h-0.8l-0.2,0.2h-1l-1.7-0.6l-2.5-4.8l-0.4-17.2l-0.2-0.6l0.4-3.4l-0.2-1.3v-2.9l0.2-0.8l-0.4-0.6
		l0.2-4.8l-0.2-1.5l0.6-2.3l-0.2-0.4l-0.2-1.7v-0.8l0.4-3.6l-0.6,0.4l-0.4,1l-1.9,0.6l-0.2,1.5l-0.4,0.6l-1.3,0.2l-0.4,1.7l-1.9,1.7
		l-2.1,2.1l-0.4,0.2l-2.5,2.1l-1.5,0.6l-1.3,1.1l-5.9,2.5l-0.2,0.6l-1.5,0.8l-0.2-0.2V183h-0.2l-1.5,1.3h-0.2v-0.4l0.6-0.6l-1.5,0.6
		l0.2,1.1l-0.8,0.4l-3.4,4.6l-1.9,3.6l-3.6,5h-0.4l-0.8,0.4l-0.2,1.3l-2.1,0.4l-3.8,2.5h-0.8l-1.5,0.6l-0.2-1h-0.4l-1.3,3.4
		l-0.2,0.2l-0.2-0.6l-1.7,2.1h-0.2l-0.2-0.2h-0.6l-0.2,0.6l-2.1,2.1l-0.8,0.2l-2.3,1.9h-0.4l-0.6,0.4l-1.7,0.4l-1-0.4l-0.8-1.5
		l0.6-3.6l1.7-5.9l1.5-1.9l1.3-4l1.5-3.6l0.8-3.6l5.3-11.3l0.2-1.3l3.8-8l0.2-0.6l3.8-7.6l0.2-1.9l1.5-2.9l1.9-4.8l0.4-0.6l0.8-1
		l0.8-1.9l0.2-0.2l1.3-3.8l3.1-7.4l0.4-0.4l0.6-1.1l0.2-0.6l2.3-6.1l0.2-0.6l2.5-4.6l0.4-1.5l5.5-11.8l0.4-0.6l0.6-2.3l1-0.8
		l0.2-1.5l2.3-3.6l1.7-3.6L229,74.8l4.6-6.3l2.7-2.7l2.1-0.2l1-0.4l2.7,0.2l2.1,0.8l1.7,2.1l-0.6,1l1,2.1l1.1,0.6l1.7,0.2l3.2,4.2
		l1.3,2.3l0.6,0.4l1,3.8l1.9,9.7l0.6,1.7l-0.2,1.5l0.4,0.8v11.8l-0.6,2.1l0.4,1.7l-1.7,7.1l-0.8,1.9h0.8l-0.6,1.3v0.6h0.2v0.2
		l-0.4,0.2l0.2,0.6h0.2v-0.2h0.4l-0.2,1.7l-0.4,0.4l-0.8,1.3h1l-1.3,2.3l-0.4,2.5l0.4,0.6l-0.6,1.3h0.4l0.6-0.6l0.6-2.9h0.4
		l-0.4,3.1v0.4h-0.2l-1.3,0.4v0.4l1.3,0.2l-0.6,0.4h-1v0.2h0.2l-0.2,1.7h0.6l-0.8,2.7l-0.6,0.6l0.4,0.6l0.4,0.4l-0.2,0.2h-0.4
		l-0.4,1h0.2l-0.2,2.1h0.2l0.8-2.1l0.2-1.7l0.4-0.6h0.4l0.4-0.6h-1v-0.2l1-0.8v1.1l0.6-0.8v0.2l-0.2,2.1l-1.3,0.6l0.6,0.8l-1,0.8
		l-1.9,4.6l0.4,0.2l1.3-3.4l0.2,0.6h0.2l1.5-1.7h0.4l-0.8,1l-0.2,0.6v2.7l0.4,0.4l-1.9,1.3h-0.6v0.2h0.6l0.2,1.3l-0.8,0.6l0.6,0.4
		h0.2l-0.6,0.4h-0.4l-0.6,0.2l-0.2-0.6l-0.2,0.2l-0.2,3.1h0.4l0.4-0.6l0.6,0.2l-0.4,1.5l-0.8,2.5v1.3l-0.6,2.5l0.2,1.9l0.4,0.2
		l-0.8,4.4v1.1l0.8-0.6L251.8,168.2z M211.7,164l11.3-2.5h1.7v0.2l0.4,0.6l0.4-0.4l0.6,0.4h0.4l0.4-2.5l0.2-3.6l-0.2-0.4l0.6-4.2
		l-0.2-0.6l0.8-2.5l1-25h-0.4l-1.5,3.2l-0.8,0.6l-1.9,5.3l-0.4,0.6l-2.5,5.3l-0.6,1.9l-4.6,10.3l-0.2,0.4l-3.1,8.4l-1.3,2.3
		l-0.6,1.9L211.7,164z M247.4,176.8l0.4-0.6l-0.2-0.2H247v0.4L247.4,176.8z M248.7,172.6l0.2-0.2l0.4-3.8l-0.4-0.4v-2.5h-0.4
		l-0.4,4.6l0.4,0.4L248.7,172.6z M248.5,181l0.4-0.6l-0.2-1.3h-0.2L248.5,181L248.5,181z M250.6,179.8l1.1-1.5l0.2-0.6l0.2-1.7
		l1-1.5l0.2-0.8l-0.2-0.7l0.4-2.9l0.6,0.8l-0.2,1.5l0.2,0.6l-1.3,4.6l-0.4,0.2v0.4l-1.1,0.8v1.3l-1,0.8l0.4-0.8L250.6,179.8z
		 M251,184.8l-0.6,0.2v-0.6L251,184.8z M251,186.1v0.2l-0.6,0.2l0.4-0.4L251,186.1L251,186.1z M250.4,191.5l0.6-1l0.2,2.1H251
		l-0.2-0.8L250.4,191.5z M251,174.3l0.4-1.5l0.4-0.2L251,174.3z M251.2,186.1l0.2-0.8l0.4-1.1l0.8-0.4v-0.4l0.4,0.4l-0.6,0.6
		l-0.4,2.5l-0.4,0.2l0.2-0.2L251.2,186.1z M251.4,187.9l0.2-0.2l-0.2,1.5l-0.2,0.2v-0.2L251.4,187.9z M252.1,155v-1l0.8,1.3
		l-0.6,0.2l-0.6,0.4h-0.2L252.1,155z M252.3,162.5l-0.6,0.4l0.6-1l0.4-0.4l1.5-2.1l0.2-0.4l0.2,0.4l-0.4,1.7l-0.6,0.4l-0.4,1.9
		l0.6-0.4l0.2-0.6h0.4l-0.6,2.5l-0.2-0.4l-1.5,2.1h-0.4l1-3.6L252.3,162.5z M251.8,139.9h0.2l1-2.1l-0.4-0.4l-0.2,0.2L251.8,139.9z
		 M252.3,179.3v0.4l-0.2-0.4H252.3z M252.3,190.3l-0.2,0.4v-0.4H252.3z M253.3,178.3v0.2l-0.8,0.2l0.4-0.4L253.3,178.3L253.3,178.3z
		 M253.3,187.9l-0.4,1.3l0.8-1l0.2,0.6l-1,0.6h-0.4l0.4-1.5H253.3z M253.1,159.2l-0.2,0.2l0.2-0.4V159.2z M253.7,186.9l0.2-0.4v0.6
		h-1l0.2-0.2H253.7z M253.1,191.7v0.2l-0.2,0.8L253.1,191.7z M253.7,156.7l0.4-2.1l-0.8-0.6l1-0.8l-0.2-1.7l0.4-0.4v2.7l-0.8,3.6
		l-0.6-0.2L253.7,156.7z M253.7,167.4h0.4l-0.4,0.8v0.2l-0.4-0.2L253.7,167.4z M253.5,184.6v0.6l-0.2-0.2L253.5,184.6z M253.7,181.9
		l-0.2-0.8l0.6-0.6v0.6l-0.6,2.3v-0.8L253.7,181.9z M254.2,158.5l0.2,0.4l-0.4-0.2v-0.2L254.2,158.5L254.2,158.5z M255,137.3
		l0.2-1.9V135l0.2-0.2l0.4,1.1l-0.4,1.9l-0.8,0.4h-0.2L255,137.3z"/>
	<path id="XMLID_139_" class="st0" d="M265.1,210.8l-1.5-1.5l-0.8-0.2L259,207l-2.1-3.4l-0.2-2.1v-4l1.5-4.6l0.6-1.5l0.2-1l4-4
		l1.7-1.5l0.6-0.2l1.7-1.3h1.3l0.8,0.4l1.3,0.2l3.8,1.9l0.4,1.3l2.5,0.8l1.9,1.7l1.5,0.4l1.9,2.5l0.4,1.3l0.8,1.3l1.3,2.7l-0.6,1.3
		l0.8,1.9l-0.6,0.2h-0.6l-0.4-0.4h-0.4l-0.2-0.4l-1.3,1.3l-0.4,1l-1,0.8l-0.2,1h-1.5v4l-1.7,1.5l-0.4,0.8l-0.4-1.7h-0.4l-0.4,0.8
		l-0.6-1.1l-0.4,0.2l-0.2,0.8l-0.2,0.2l-0.6,0.8h-2.1v1H269l-1.5-1L265.1,210.8z M278.5,208.7l0.4,0.2v0.2l-0.4-0.2V208.7z"/>
</g>
</svg>
